<?xml version="1.0" encoding="UTF-8"?>
<!DOCTYPE svg PUBLIC "-//W3C//DTD SVG 1.1//EN" "http://www.w3.org/Graphics/SVG/1.1/DTD/svg11.dtd">
<svg version="1.1" xmlns="http://www.w3.org/2000/svg" xmlns:xlink="http://www.w3.org/1999/xlink" x="0" y="0" width="512" height="512" viewBox="0, 0, 512, 512">
  <g id="Layer_1">
    <path d="M0,0 L512,0 L512,512 L0,512 L0,0 z" fill="#FFFFFF"/>
    <path d="M82,358 L430,358 L430,433 L82,433 L82,358 z" fill="#C3C5C7"/>
    <path d="M82,267 L430,267 L430,342 L82,342 L82,267 z" fill="#C3C5C7"/>
    <path d="M82,174 L430,174 L430,249 L82,249 L82,174 z" fill="#ECECED"/>
    <path d="M105.348,55.016 C77.799,55.016 55,77.652 55,105.201 L55,406.799 C55,434.348 77.799,456.984 105.348,456.984 L323.065,456.984 L406.782,456.984 C434.331,456.984 457,434.348 457,406.799 L457,105.201 C457,77.652 434.331,55.016 406.782,55.016 L105.348,55.016 z M88.533,180.641 L172.217,180.641 L172.217,239.233 L88.533,239.233 L88.533,180.641 z M205.75,180.641 L306.25,180.641 L306.25,239.233 L205.75,239.233 L205.75,180.641 z M339.783,180.641 L423.467,180.641 L423.467,239.233 L339.783,239.233 L339.783,180.641 z M88.533,272.767 L172.217,272.767 L172.217,331.359 L88.533,331.359 L88.533,272.767 z M205.75,272.767 L306.25,272.767 L306.25,331.359 L205.75,331.359 L205.75,272.767 z M339.783,272.767 L423.467,272.767 L423.467,331.359 L339.783,331.359 L339.783,272.767 z M88.533,364.859 L172.217,364.859 L172.217,423.484 L105.348,423.484 C95.779,423.484 88.533,416.369 88.533,406.799 L88.533,364.859 z M205.75,364.859 L306.25,364.859 L306.25,423.484 L205.75,423.484 L205.75,364.859 z M339.783,364.859 L423.467,364.859 L423.467,406.799 C423.467,416.369 416.352,423.484 406.782,423.484 L339.783,423.484 L339.783,364.859 z" fill="#24292F"/>
    <g>
      <g>
        <path d="M380.5,240.5 C325.272,240.5 280.5,195.728 280.5,140.5 C280.5,85.272 325.272,40.5 380.5,40.5 C435.728,40.5 480.5,85.272 480.5,140.5 C480.5,195.728 435.728,240.5 380.5,240.5 z" fill="#FFFFFF"/>
        <path d="M380.5,240.5 C325.272,240.5 280.5,195.728 280.5,140.5 C280.5,85.272 325.272,40.5 380.5,40.5 C435.728,40.5 480.5,85.272 480.5,140.5 C480.5,195.728 435.728,240.5 380.5,240.5 z" fill-opacity="0" stroke="#000000" stroke-width="12"/>
      </g>
      <g>
        <path d="M380,64.138 L440.69,124.828 L319.31,124.828 z" fill="#0076FF"/>
        <path d="M380,215.862 L440.69,155.172 L319.31,155.172 z" fill="#00E635"/>
      </g>
    </g>
  </g>
</svg>
